# xmcd
#
# Track frame offsets:
# 150
# 11640
# 24301
# 37388
# 50412
# 63351
# 74471
# 86002
# 100808
# 115743
# 131600
# 144897
# 157513
# 170982
#
# Disc length: 2388 seconds
#
#
# Revision: 0
# Processed by: cddbd v1.5.2PL0 Copyright (c) Steve Scherf et al.
# Submitted via: FreeRIP 2.70 
#
DISCID=b909520e
DTITLE=Various Artist - Country girls meet country boys Disc 2
DYEAR=2005
DGENRE=Country
TTITLE0=Kenny Rogers - Me and Bobby McGhee
TTITLE1=Slim Whitman - Tennessee waltz
TTITLE2=Kenny Rogers - Ruby (don't take your love to town)
TTITLE3=Slim Whitman - Red sails in the sunset
TTITLE4=Kenny Rogers - Ruben James
TTITLE5=Slim Whitman - Singin' the blues
TTITLE6=Kenny Rogers - Poem for a little lady
TTITLE7=Slim Whitman - Mocking Bird Hill
TTITLE8=Kenny Rogers - For the good times
TTITLE9=Slim Whitman - Down in the valley
TTITLE10=Kenny Rogers - Shine on Ruby Mountain
TTITLE11=Slim Whitman - Half as much
TTITLE12=Kenny Rogers - A stranger in my place
TTITLE13=Slim Whitman - Have you ever been lonely
EXTD=Dolly Parton, Kenny Rogers, Slim Whitman, Tammy Wynette\nBB2144
EXTT0=
EXTT1=
EXTT2=
EXTT3=
EXTT4=
EXTT5=
EXTT6=
EXTT7=
EXTT8=
EXTT9=
EXTT10=
EXTT11=
EXTT12=
EXTT13=
PLAYORDER=
